<?xml version="1.0" standalone="no"?>
<!DOCTYPE svg PUBLIC "-//W3C//DTD SVG 20010904//EN"
 "http://www.w3.org/TR/2001/REC-SVG-20010904/DTD/svg10.dtd">
<svg version="1.0" xmlns="http://www.w3.org/2000/svg"
 width="271.000000pt" height="186.000000pt" viewBox="0 0 271.000000 186.000000"
 preserveAspectRatio="xMidYMid meet">

<g transform="translate(0.000000,186.000000) scale(0.100000,-0.100000)"
fill="#3E3C3C" stroke="none">
<path d="M1505 1775 c-5 -1 -91 -10 -190 -19 -99 -9 -224 -20 -278 -25 -76 -7
-135 -22 -265 -65 -92 -31 -184 -58 -205 -61 l-38 -6 35 -41 c19 -22 63 -95
98 -162 62 -121 138 -216 173 -216 8 0 15 -3 15 -6 0 -15 -63 -93 -99 -122
-40 -32 -43 -33 -113 -27 -40 4 -75 10 -78 14 -3 5 -16 12 -29 16 -19 6 -21 9
-10 17 10 7 7 8 -11 4 -14 -3 -32 0 -40 5 -13 9 -12 10 2 5 10 -3 18 0 18 5 0
7 -11 9 -25 7 -13 -3 -22 -1 -19 3 3 5 -32 27 -78 49 -45 23 -88 46 -95 52
-29 24 -3 16 75 -22 85 -42 116 -49 126 -27 4 6 5 3 3 -9 -3 -16 4 -23 35 -32
22 -7 43 -10 48 -7 4 3 11 -1 13 -7 4 -10 8 -9 16 2 8 11 11 12 11 2 0 -7 5
-10 10 -7 6 4 17 2 24 -4 9 -8 13 -7 13 4 0 8 -5 11 -10 8 -6 -3 -7 -1 -3 5 4
6 13 9 21 6 8 -4 12 -10 9 -15 -3 -5 -2 -9 3 -10 4 0 24 -2 43 -5 26 -3 7 10
-80 55 -63 32 -171 90 -238 130 -68 39 -135 71 -149 71 -82 0 -162 -209 -134
-350 10 -50 9 -79 -5 -167 -26 -171 -10 -225 79 -263 68 -29 124 -24 287 30
69 22 159 50 200 60 l75 19 24 -24 25 -24 -37 -16 c-30 -12 -42 -26 -61 -69
-18 -40 -36 -62 -72 -86 -66 -44 -103 -79 -121 -114 -15 -28 -15 -29 9 -21 12
4 59 10 103 12 65 4 100 0 185 -22 117 -30 227 -36 323 -15 54 11 63 10 113
-12 29 -12 54 -26 54 -29 0 -11 -76 -47 -126 -58 -28 -7 -107 -15 -175 -19
-124 -7 -124 -7 -97 -25 20 -14 59 -21 158 -28 73 -5 182 -21 243 -35 230 -53
293 -44 415 55 61 50 80 59 124 65 45 6 273 56 389 87 45 11 89 45 89 67 0 12
-20 24 -67 41 -121 43 -142 57 -168 114 -13 29 -27 74 -30 100 l-7 48 48 -30
c107 -66 242 -92 372 -72 130 20 164 53 145 139 -22 100 -96 319 -138 408 -49
106 -135 241 -192 305 -41 46 -102 78 -145 79 -39 0 -121 52 -198 125 -70 66
-138 115 -185 133 -56 22 -204 38 -240 27z m-701 -130 c-4 -8 -11 -12 -16 -9
-6 4 -5 10 3 15 19 12 19 11 13 -6z m-46 -17 c-2 -7 -14 -16 -28 -19 -19 -5
-14 -7 20 -9 25 -1 54 -5 65 -9 12 -5 -8 -6 -46 -4 -55 5 -67 3 -72 -11 -5
-12 0 -16 21 -17 28 0 157 -47 134 -48 -7 -1 -28 5 -47 13 -51 22 -130 32
-120 16 5 -9 2 -10 -14 -5 -12 3 -21 3 -20 -2 1 -4 1 -19 0 -33 l-1 -24 -16
22 c-8 12 -12 27 -9 32 4 6 1 9 -7 8 -7 -2 -12 5 -12 14 1 10 -2 16 -6 13 -4
-3 -13 2 -20 10 -10 12 -7 15 17 21 26 5 155 40 161 43 1 0 1 -5 0 -11z m139
-4 c-3 -3 -12 -4 -19 -1 -8 3 -5 6 6 6 11 1 17 -2 13 -5z m888 -25 c23 -9 26
-13 12 -16 -9 -3 -14 -9 -11 -15 5 -7 0 -9 -14 -6 -12 4 -20 2 -16 -3 8 -14
41 -11 58 6 8 8 18 15 23 15 4 0 6 -43 5 -96 -3 -77 -8 -100 -23 -115 -10 -10
-21 -30 -25 -43 -3 -14 -12 -27 -20 -30 -8 -3 -14 -13 -14 -23 0 -10 -8 -23
-19 -30 -10 -6 -21 -27 -25 -46 -4 -19 -20 -50 -36 -68 -17 -19 -33 -45 -36
-59 -13 -56 -26 -90 -35 -90 -5 0 -9 -9 -9 -19 0 -11 -4 -23 -10 -26 -5 -3
-10 -1 -10 6 0 7 -13 0 -30 -16 -28 -27 -30 -27 -30 -8 0 18 -8 21 -77 28 -43
4 -87 13 -98 21 -11 8 -36 14 -55 14 -41 0 -138 43 -146 65 -4 8 -11 15 -16
15 -6 0 -26 14 -45 30 -18 16 -39 30 -46 30 -23 0 -102 -32 -119 -47 -10 -8
-24 -13 -33 -10 -8 4 -15 3 -15 -2 0 -15 -58 -33 -82 -26 l-23 8 20 -23 20
-23 -22 14 c-13 8 -23 16 -23 19 0 3 16 20 35 39 l34 34 10 -24 c6 -14 10 -17
10 -9 1 9 -4 21 -10 27 -13 13 12 58 26 45 5 -4 5 -1 1 6 -9 15 67 135 79 124
4 -4 6 0 2 9 -3 10 10 32 35 60 21 24 36 37 32 29 -4 -9 -3 -12 2 -7 5 5 9 12
9 15 1 20 28 53 40 48 9 -3 12 0 8 10 -4 10 0 12 13 7 11 -4 15 -3 10 5 -13
22 129 106 224 132 141 39 393 49 465 19z m-1062 -116 c-7 -2 -21 -2 -30 0
-10 3 -4 5 12 5 17 0 24 -2 18 -5z m1469 -172 c93 -59 138 -232 88 -336 -30
-62 -78 -97 -141 -103 -134 -13 -230 92 -200 220 13 60 62 162 95 199 50 57
91 62 158 20z m187 -87 c12 -19 18 -40 15 -46 -4 -6 -3 -8 3 -5 9 5 83 -135
83 -156 0 -15 -19 -6 -23 11 -3 12 -5 10 -7 -8 -1 -14 -2 -28 -1 -32 0 -5 -5
-8 -12 -8 -18 0 -38 45 -31 65 4 9 3 15 -2 14 -25 -4 -34 4 -34 30 0 16 -7 36
-15 45 -8 8 -15 18 -15 21 0 4 7 5 15 1 8 -3 15 -3 15 -1 0 11 -25 62 -39 79
-9 11 -11 16 -4 13 6 -4 14 -3 18 3 9 15 11 13 34 -26z m-1900 -33 c-6 -2 -18
4 -27 13 -15 15 -15 15 10 4 15 -7 23 -15 17 -17z m86 -37 c13 -2 65 -34 65
-40 0 -2 -13 -2 -30 -1 -27 2 -34 8 -32 28 1 3 -6 6 -14 6 -17 0 -19 -14 -1
-20 6 -2 9 -7 6 -11 -3 -4 -19 -1 -35 5 -29 11 -29 11 -6 20 30 12 28 19 -5
13 -19 -3 -24 -2 -14 5 7 5 10 14 6 21 -4 7 5 4 20 -6 16 -10 33 -19 40 -20z
m-65 -106 c40 -16 4 -22 -44 -8 -86 26 -92 30 -36 24 30 -4 66 -11 80 -16z
m115 -36 c51 -13 64 -20 51 -25 -11 -4 -24 -3 -30 3 -5 5 -24 10 -41 10 -17 0
-40 7 -51 15 -25 19 -14 18 71 -3z m140 -1 c3 -5 2 -12 -3 -15 -5 -3 -9 1 -9
9 0 17 3 19 12 6z m1739 -26 c3 -9 0 -15 -9 -15 -8 0 -15 7 -15 15 0 8 4 15 9
15 5 0 11 -7 15 -15z m20 -70 c3 -8 1 -15 -4 -15 -6 0 -10 7 -10 15 0 8 2 15
4 15 2 0 6 -7 10 -15z m-981 -222 c-13 -2 -35 -2 -50 0 -16 2 -5 4 22 4 28 0
40 -2 28 -4z m90 0 c-13 -2 -33 -2 -45 0 -13 2 -3 4 22 4 25 0 35 -2 23 -4z"/>
<path d="M965 1309 c-3 -4 2 -6 10 -5 21 3 28 13 10 13 -9 0 -18 -4 -20 -8z"/>
<path d="M2050 1247 c-34 -26 -50 -62 -50 -110 0 -81 35 -127 97 -127 56 0 93
51 93 128 l0 54 -19 -23 c-16 -20 -23 -22 -38 -13 -24 15 -29 52 -7 61 9 3 25
1 35 -5 15 -10 17 -9 12 4 -13 35 -93 56 -123 31z m70 -112 c0 -8 -9 -15 -20
-15 -11 0 -20 7 -20 15 0 8 9 15 20 15 11 0 20 -7 20 -15z"/>
<path d="M2360 1201 c0 -5 5 -13 10 -16 6 -3 10 -2 10 4 0 5 -4 13 -10 16 -5
3 -10 2 -10 -4z"/>
<path d="M2421 1028 c-1 -16 4 -28 9 -28 12 0 12 8 0 35 -8 18 -9 17 -9 -7z"/>
</g>
</svg>
